<svg width="56" height="42" viewBox="0 0 56 42" fill="none" xmlns="http://www.w3.org/2000/svg">
<path d="M44.4052 7.80381C39.6997 7.13064 34.8891 7.58474 30.4212 9.12381L29.4985 9.45381C23.4513 11.7505 16.8553 12.476 10.4052 11.5538C7.6372 11.1538 4.75187 10.5088 2.22387 9.32631C1.3027 8.89834 0.592662 8.15428 0.241117 7.24855C-0.110428 6.34282 -0.0764882 5.34497 0.335892 4.46208C0.748273 3.57919 1.50743 2.87905 2.45581 2.50697C3.4042 2.13489 4.46898 2.11943 5.4292 2.46381L5.7812 2.60881C7.59987 3.40881 9.64787 3.85631 11.6212 4.14131C15.2052 4.65631 20.1092 4.69131 25.6052 2.81881L26.5279 2.48881C32.5751 0.192075 39.1711 -0.533392 45.6212 0.388807C48.3892 0.788807 51.2719 1.43631 53.7972 2.61381C54.7406 3.06498 55.4572 3.84563 55.7924 4.78747C56.1276 5.72932 56.0546 6.75693 55.5892 7.64881C54.6052 9.49381 52.5972 9.91631 50.2425 9.33381L44.4052 7.80381ZM44.4052 22.8038C39.6997 22.1306 34.8891 22.5847 30.4212 24.1238L29.4985 24.4538C23.4513 26.7505 16.8553 27.476 10.4052 26.5538C7.6372 26.1538 4.75187 25.5088 2.22387 24.3263C1.3027 23.8983 0.592662 23.1543 0.241117 22.2486C-0.110428 21.3428 -0.0764882 20.345 0.335892 19.4621C0.748273 18.5792 1.50743 17.8791 2.45581 17.507C3.4042 17.1349 4.46898 17.1194 5.4292 17.4638L5.7812 17.6088C7.59987 18.4088 9.64787 18.8563 11.6212 19.1413C15.2052 19.6563 20.1092 19.6913 25.6052 17.8188L26.5279 17.4888C32.5751 15.1921 39.1711 14.4666 45.6212 15.3888C48.3892 15.7888 51.2719 16.4363 53.7972 17.6138C54.7406 18.065 55.4572 18.8456 55.7924 19.7875C56.1276 20.7293 56.0546 21.7569 55.5892 22.6488C54.6052 24.4963 52.5972 24.9163 50.2425 24.3338L44.4052 22.8038ZM28.5279 39.8038L29.4985 39.4538C34.2182 37.6553 39.3685 37.0852 44.4052 37.8038L50.2452 39.3338C52.5972 39.9163 54.6052 39.4963 55.5919 37.6488C56.0563 36.7569 56.1284 35.7297 55.7927 34.7884C55.457 33.8471 54.7404 33.067 53.7972 32.6163C51.2719 31.4363 48.3892 30.7913 45.6212 30.3913C39.5191 29.5172 33.2799 30.1195 27.4959 32.1413L26.5279 32.4913C20.6559 34.6913 15.4025 34.6863 11.6212 34.1413C9.93054 33.8963 8.1812 33.5338 6.5732 32.9313L5.7812 32.6063C4.83067 32.1641 3.73167 32.0939 2.72597 32.4113C1.72028 32.7287 0.890268 33.4077 0.418536 34.2988C-0.0531955 35.1899 -0.128007 36.2203 0.210558 37.1631C0.549124 38.1059 1.27333 38.8841 2.22387 39.3263C4.7492 40.5088 7.6372 41.1538 10.4052 41.5513C15.0772 42.2263 21.4532 42.2513 28.5279 39.8013V39.8038Z" fill="#323638"/>
</svg>
